<?xml version="1.0" encoding="UTF-8"?>
<svg id="Layer_2" data-name="Layer 2" xmlns="http://www.w3.org/2000/svg" viewBox="0 0 54.74 38.73">
  <defs>
    <style>
      .cls-1 {
        fill: #1f8ad1;
      }

      .cls-2 {
        fill: #368538;
      }

      .cls-3 {
        fill: #94cff5;
      }

      .cls-4 {
        fill: #59b061;
      }

      .cls-5 {
        fill: #57a6e5;
      }

      .cls-6 {
        fill: #7acf80;
      }
    </style>
  </defs>
  <g id="Layer_1-2" data-name="Layer 1">
    <g>
      <g>
        <path class="cls-5" d="m50,27.37s.03-.03.05-.04c.02-.02.03-.04.05-.05-2.87-2.89-4.65-6.88-4.65-11.27,0,1.79-.7,3.48-1.97,4.75-1.27,1.27-2.96,1.97-4.75,1.97-3.7,0-6.72-3.01-6.72-6.72,0-1.79.7-3.48,1.97-4.75,1.27-1.27,2.96-1.97,4.75-1.97s3.48.7,4.75,1.97c1.27,1.27,1.97,2.96,1.97,4.75,0-4.39,1.78-8.37,4.65-11.27-.02-.02-.03-.04-.05-.05-3.02-3.02-7.04-4.69-11.32-4.69s-8.29,1.67-11.32,4.69c-3.02,3.02-4.69,7.04-4.69,11.32s1.81,8.45,4.74,11.36c3.02-2.99,7.02-4.64,11.27-4.64s8.25,1.65,11.27,4.64"/>
        <path class="cls-4" d="m27.28,27.37s.03-.03.05-.04c.02-.02.03-.04.05-.05-2.87-2.89-4.65-6.88-4.65-11.27,0,1.79-.7,3.48-1.97,4.75-1.27,1.27-2.96,1.97-4.75,1.97-3.7,0-6.72-3.01-6.72-6.72,0-1.79.7-3.48,1.97-4.75,1.27-1.27,2.96-1.97,4.75-1.97s3.48.7,4.75,1.97c1.27,1.27,1.97,2.96,1.97,4.75,0-4.39,1.78-8.37,4.65-11.27-.02-.02-.03-.04-.05-.05C24.3,1.67,20.28,0,16.01,0S7.71,1.67,4.69,4.69C1.67,7.71,0,11.73,0,16.01s1.81,8.45,4.74,11.36c3.02-2.99,7.02-4.64,11.27-4.64s8.25,1.65,11.27,4.64"/>
        <path class="cls-6" d="m22.72,16.01c0,4.39,1.78,8.37,4.65,11.27,2.99-3.02,4.64-7.02,4.64-11.27s-1.65-8.25-4.64-11.27c-2.87,2.89-4.65,6.88-4.65,11.27Z"/>
        <path class="cls-2" d="m27.28,27.37c-3.02-2.99-7.02-4.64-11.27-4.64s-8.25,1.65-11.27,4.64c2.9,2.87,6.88,4.65,11.27,4.65s8.25-1.65,11.27-4.64"/>
        <path class="cls-5" d="m45.45,16.01c0,4.39,1.78,8.37,4.65,11.27,2.99-3.02,4.64-7.02,4.64-11.27s-1.65-8.25-4.64-11.27c-2.87,2.89-4.65,6.88-4.65,11.27Z"/>
        <path class="cls-4" d="m4.69,27.41c-3.02,3.02-4.69,7.04-4.69,11.32h9.29c0-1.79.7-3.48,1.97-4.75,1.27-1.27,2.96-1.97,4.75-1.97-4.39,0-8.37-1.78-11.27-4.65-.02.02-.03.03-.05.05"/>
        <path class="cls-4" d="m27.32,27.41s-.03-.03-.05-.04c-3.02,2.99-7.02,4.64-11.27,4.64,1.79,0,3.48.7,4.75,1.97,1.27,1.27,1.97,2.96,1.97,4.75,0-4.25,1.65-8.25,4.65-11.27-.02-.01-.03-.03-.04-.05"/>
      </g>
      <g>
        <path class="cls-5" d="m27.46,27.36s-.04.03-.05.05c-.02.01-.03.03-.04.05,2.99,3.02,4.64,7.02,4.64,11.27,0-1.79.7-3.48,1.97-4.75,1.27-1.27,2.96-1.97,4.75-1.97-4.39,0-8.37-1.78-11.27-4.65"/>
        <path class="cls-3" d="m22.72,38.73h9.29c0-4.25-1.65-8.25-4.64-11.27-3,3.02-4.64,7.02-4.64,11.27"/>
        <path class="cls-5" d="m43.48,33.98c1.27,1.27,1.97,2.96,1.97,4.75h9.29c0-4.27-1.67-8.29-4.69-11.32-.01-.02-.03-.03-.05-.04-3.02,2.99-7.02,4.64-11.27,4.64,1.79,0,3.48.7,4.75,1.97"/>
        <path class="cls-1" d="m50,27.37c-3.02-2.99-7.02-4.64-11.27-4.64s-8.25,1.65-11.27,4.64c2.89,2.87,6.88,4.65,11.27,4.65s8.25-1.65,11.27-4.64"/>
      </g>
    </g>
  </g>
</svg>